<?xml version="1.0" encoding="UTF-8"?>
<svg xmlns="http://www.w3.org/2000/svg" viewBox="0 0 128 128" role="img" aria-label="Pevel Technologies logo">
  <defs>
    <linearGradient id="brandGradient" x1="0" y1="0" x2="1" y2="1">
      <stop offset="0%" stop-color="#3B82F6" />
      <stop offset="100%" stop-color="#7C3AED" />
    </linearGradient>
  </defs>
  <rect width="128" height="128" rx="28" fill="url(#brandGradient)" />
  <g opacity="0.18">
    <circle cx="64" cy="64" r="40" fill="#ffffff" />
  </g>
  <g fill="#ffffff">
    <circle cx="64" cy="64" r="28" opacity="0.18" />
    <circle cx="64" cy="64" r="18" opacity="0.24" />
  </g>
  <g fill="#ffffff" opacity="0.9">
    <circle cx="64" cy="64" r="40" fill="none" stroke="#ffffff" stroke-width="4" />
    <circle cx="64" cy="64" r="28" fill="none" stroke="#ffffff" stroke-width="3" opacity="0.7" />
  </g>
  <g fill="#ffffff">
    <rect x="60" y="6" width="8" height="18" rx="3" transform="rotate(0 64 64)" />
    <rect x="60" y="6" width="8" height="18" rx="3" transform="rotate(45 64 64)" />
    <rect x="60" y="6" width="8" height="18" rx="3" transform="rotate(90 64 64)" />
    <rect x="60" y="6" width="8" height="18" rx="3" transform="rotate(135 64 64)" />
    <rect x="60" y="6" width="8" height="18" rx="3" transform="rotate(180 64 64)" />
    <rect x="60" y="6" width="8" height="18" rx="3" transform="rotate(225 64 64)" />
    <rect x="60" y="6" width="8" height="18" rx="3" transform="rotate(270 64 64)" />
    <rect x="60" y="6" width="8" height="18" rx="3" transform="rotate(315 64 64)" />
  </g>
  <g fill="none" stroke="#ffffff" stroke-width="5" stroke-linecap="round" opacity="0.82">
    <path d="M18 64a46 46 0 0 1 36-45" />
    <path d="M110 62a46 46 0 0 1-36 45" />
    <path d="M25 39a46 46 0 0 1 16-10" />
    <path d="M103 89a46 46 0 0 1-16 10" />
  </g>
  <g fill="#ffffff">
    <circle cx="22" cy="22" r="4" />
    <circle cx="107" cy="19" r="4" />
    <circle cx="107" cy="107" r="4" />
    <circle cx="21" cy="104" r="4" />
  </g>
  <text x="64" y="72" text-anchor="middle" dominant-baseline="middle" alignment-baseline="middle" font-family="Inter, Arial, sans-serif" font-size="48" font-weight="900" fill="#ffffff">P</text>
</svg>
